<mxfile host="65bd71144e">
    <diagram id="UXAagB2lzyMnGWN876DS" name="Page-1">
        <mxGraphModel dx="1093" dy="617" grid="1" gridSize="10" guides="1" tooltips="1" connect="1" arrows="1" fold="1" page="1" pageScale="1" pageWidth="1100" pageHeight="850" math="0" shadow="0">
            <root>
                <mxCell id="0"/>
                <mxCell id="1" parent="0"/>
                <mxCell id="2" value="STAFF LOGIN" style="rounded=0;whiteSpace=wrap;html=1;fillColor=#6d8764;strokeColor=#3A5431;fontColor=#ffffff;" vertex="1" parent="1">
                    <mxGeometry x="50" y="80" width="120" height="60" as="geometry"/>
                </mxCell>
                <mxCell id="5" value="&lt;h1 style=&quot;font-size: 15px&quot;&gt;Student login&lt;/h1&gt;" style="rounded=0;whiteSpace=wrap;html=1;fillColor=#fad9d5;strokeColor=#ae4132;fontFamily=Verdana;labelBorderColor=none;fontColor=#000000;" vertex="1" parent="1">
                    <mxGeometry x="470" y="80" width="120" height="60" as="geometry"/>
                </mxCell>
                <mxCell id="8" value="" style="shape=flexArrow;endArrow=classic;html=1;fillColor=#ffcccc;strokeColor=#36393d;" edge="1" parent="1" source="3">
                    <mxGeometry width="50" height="50" relative="1" as="geometry">
                        <mxPoint x="290" y="220" as="sourcePoint"/>
                        <mxPoint x="330" y="240" as="targetPoint"/>
                    </mxGeometry>
                </mxCell>
                <mxCell id="11" value="" style="shape=flexArrow;endArrow=classic;html=1;exitX=0.45;exitY=1;exitDx=0;exitDy=0;exitPerimeter=0;fillColor=#cdeb8b;strokeColor=#36393d;" edge="1" parent="1" source="5">
                    <mxGeometry width="50" height="50" relative="1" as="geometry">
                        <mxPoint x="500" y="210" as="sourcePoint"/>
                        <mxPoint x="524" y="240" as="targetPoint"/>
                    </mxGeometry>
                </mxCell>
                <mxCell id="16" value="Apply for leave" style="rounded=0;whiteSpace=wrap;html=1;fillColor=#dae8fc;gradientColor=#7ea6e0;strokeColor=#6c8ebf;" vertex="1" parent="1">
                    <mxGeometry x="40" y="240" width="120" height="30" as="geometry"/>
                </mxCell>
                <mxCell id="17" value="Student Attendance" style="rounded=0;whiteSpace=wrap;html=1;fillColor=#dae8fc;gradientColor=#7ea6e0;strokeColor=#6c8ebf;" vertex="1" parent="1">
                    <mxGeometry x="40" y="290" width="120" height="30" as="geometry"/>
                </mxCell>
                <mxCell id="18" value="Send Notice to Student" style="rounded=0;whiteSpace=wrap;html=1;fillColor=#dae8fc;gradientColor=#7ea6e0;strokeColor=#6c8ebf;" vertex="1" parent="1">
                    <mxGeometry x="40" y="340" width="120" height="30" as="geometry"/>
                </mxCell>
                <mxCell id="19" value="Staff Profile" style="rounded=0;whiteSpace=wrap;html=1;fillColor=#dae8fc;gradientColor=#7ea6e0;strokeColor=#6c8ebf;" vertex="1" parent="1">
                    <mxGeometry x="40" y="390" width="120" height="30" as="geometry"/>
                </mxCell>
                <mxCell id="22" value="Manage Students" style="rounded=0;whiteSpace=wrap;html=1;fillColor=#ffcd28;strokeColor=#d79b00;gradientColor=#ffa500;" vertex="1" parent="1">
                    <mxGeometry x="270" y="240" width="120" height="30" as="geometry"/>
                </mxCell>
                <mxCell id="23" value="Apply For&amp;nbsp; Leave" style="rounded=0;whiteSpace=wrap;html=1;fillColor=#ffcd28;gradientColor=#ffa500;strokeColor=#d79b00;" vertex="1" parent="1">
                    <mxGeometry x="470" y="240" width="120" height="30" as="geometry"/>
                </mxCell>
                <mxCell id="24" value="Manage Stuff" style="rounded=0;whiteSpace=wrap;html=1;fillColor=#ffcd28;gradientColor=#ffa500;strokeColor=#d79b00;" vertex="1" parent="1">
                    <mxGeometry x="270" y="300" width="120" height="30" as="geometry"/>
                </mxCell>
                <mxCell id="25" value="Student Profile" style="rounded=0;whiteSpace=wrap;html=1;fillColor=#ffcd28;gradientColor=#ffa500;strokeColor=#d79b00;" vertex="1" parent="1">
                    <mxGeometry x="470" y="290" width="120" height="30" as="geometry"/>
                </mxCell>
                <mxCell id="26" value="Send Notification" style="rounded=0;whiteSpace=wrap;html=1;fillColor=#ffcd28;gradientColor=#ffa500;strokeColor=#d79b00;" vertex="1" parent="1">
                    <mxGeometry x="270" y="350" width="120" height="30" as="geometry"/>
                </mxCell>
                <mxCell id="27" value="FeedBack" style="rounded=0;whiteSpace=wrap;html=1;fillColor=#ffcd28;gradientColor=#ffa500;strokeColor=#d79b00;" vertex="1" parent="1">
                    <mxGeometry x="470" y="340" width="120" height="30" as="geometry"/>
                </mxCell>
                <mxCell id="28" value="View Attendence Report" style="rounded=0;whiteSpace=wrap;html=1;fillColor=#ffcd28;gradientColor=#ffa500;strokeColor=#d79b00;" vertex="1" parent="1">
                    <mxGeometry x="270" y="400" width="120" height="30" as="geometry"/>
                </mxCell>
                <mxCell id="29" value="See Notification" style="rounded=0;whiteSpace=wrap;html=1;fillColor=#ffcd28;gradientColor=#ffa500;strokeColor=#d79b00;" vertex="1" parent="1">
                    <mxGeometry x="470" y="390" width="120" height="30" as="geometry"/>
                </mxCell>
                <mxCell id="30" value="Manage Subjects &amp;amp; Courses" style="rounded=0;whiteSpace=wrap;html=1;fillColor=#ffcd28;gradientColor=#ffa500;strokeColor=#d79b00;" vertex="1" parent="1">
                    <mxGeometry x="270" y="450" width="120" height="30" as="geometry"/>
                </mxCell>
                <mxCell id="3" value="HOD LOGIN" style="rounded=0;whiteSpace=wrap;html=1;fillColor=#b1ddf0;strokeColor=#10739e;fontColor=#4A30F0;fontSize=13;" vertex="1" parent="1">
                    <mxGeometry x="270" y="80" width="120" height="60" as="geometry"/>
                </mxCell>
                <mxCell id="33" value="" style="shape=flexArrow;endArrow=classic;html=1;entryX=0.572;entryY=-0.085;entryDx=0;entryDy=0;entryPerimeter=0;fillColor=#ffcccc;strokeColor=#36393d;" edge="1" parent="1" target="16">
                    <mxGeometry width="50" height="50" relative="1" as="geometry">
                        <mxPoint x="109" y="140" as="sourcePoint"/>
                        <mxPoint x="340" y="250" as="targetPoint"/>
                        <Array as="points"/>
                    </mxGeometry>
                </mxCell>
                <mxCell id="34" value="&lt;font style=&quot;font-size: 17px&quot;&gt;&lt;b&gt;School Management&amp;nbsp; System&amp;nbsp; Features and Modules&lt;/b&gt;&lt;/font&gt;" style="rounded=0;whiteSpace=wrap;html=1;labelBackgroundColor=none;labelBorderColor=none;fontFamily=Verdana;fontSize=13;fillColor=#d5e8d4;gradientColor=#97d077;strokeColor=#82b366;fontColor=#000000;" vertex="1" parent="1">
                    <mxGeometry width="710" height="60" as="geometry"/>
                </mxCell>
            </root>
        </mxGraphModel>
    </diagram>
</mxfile>